<?xml version="1.0" encoding="utf-8"?>
<!-- Svg Vector Icons : http://www.onlinewebfonts.com/icon -->
<!DOCTYPE svg PUBLIC "-//W3C//DTD SVG 1.1//EN" "http://www.w3.org/Graphics/SVG/1.1/DTD/svg11.dtd">
<svg version="1.1" xmlns="http://www.w3.org/2000/svg" xmlns:xlink="http://www.w3.org/1999/xlink" x="0px" y="0px" viewBox="0 0 1000 1000" enable-background="new 0 0 1000 1000" xml:space="preserve">
<metadata> Svg Vector Icons : http://www.onlinewebfonts.com/icon </metadata>
<g><g><path d="M889.8,10H110.2C54.9,10,10,54.8,10,110.2v779.6C10,945.2,54.9,990,110.2,990h779.6c55.3,0,100.2-44.7,100.2-100.2V110.2C990.1,54.8,945.3,10,889.8,10z M220.6,123.7c54.2,0,98.1,40.2,98.1,89.7c0,49.4-43.9,89.6-98.1,89.6c-54.2,0-98.1-40.2-98.1-89.6C122.4,163.9,166.5,123.7,220.6,123.7z M328.5,876.4H112.7V371.8h215.8V876.4z M876.6,873.9H712.7V604.9c0-53.4-35.8-100.3-93.1-100.3c-57.3,0-78.3,43.7-78.3,84.6c0,55.2,0,284.9,0,284.9h-164V374.2h164v74c23.7-33.5,84-75.6,148.2-75.6c79.9,0,96.4,15.5,129.3,48.4c62.5,62.6,56.7,150,57.6,176.7h0.2L876.6,873.9z"/></g><g></g><g></g><g></g><g></g><g></g><g></g><g></g><g></g><g></g><g></g><g></g><g></g><g></g><g></g><g></g></g>
</svg>